<svg xmlns="http://www.w3.org/2000/svg" viewBox="0 0 230.69 124.47"><defs><style>.cls-1{fill:#313444;}.cls-2{fill:#c9c8cd;}.cls-3{fill:#848489;}.cls-4{fill:#ff7300;}.cls-5{fill:#fff;}.cls-6{fill:#ffce00;}.cls-7{fill:#232321;}.cls-8{fill:#cecece;}.cls-9{fill:#b3b3b3;}.cls-10{fill:#9a9896;}.cls-11{fill:#f5a200;}.cls-12{fill:#d98400;}.cls-13{fill:#6e6e6e;}.cls-14{fill:#8d8b8a;}</style></defs><title>Recurso 1</title><g id="Capa_2" data-name="Capa 2"><g id="OBJECTS"><path class="cls-1" d="M84.33,81.29c10.78,2.45-11.5,6.48-28.74,2.71C35,79.51,12.65,79.7,10,83.54S42,87.26,50.26,90.13c7.49,2.6-24,4.59-16.95,10,9,6.83,58.57,6,70.43,2,26.53-9,53.89-3,64-1.13,21.26,4,73.63-.91,34.5-7.2-19.41-3.12-16-6.28-1-8.09,24.38-3,2.28-7.81-15-6.31-4.59.39-8.36,1.68-17.25,2.1-7.76.37-16.64-.43-17.79-1.67-2.87-3.12,24-5.44,21.56-8.15-3.59-4-37.36-4.69-39.88-.58-2.74,4.49-13.6,6.38-30.84,4.88-12.94-1.12-23.5-.56-27.37,1.36S80,80.31,84.33,81.29Z"/><rect class="cls-2" x="40.44" y="9.9" width="7.81" height="96.82"/><rect class="cls-2" x="177.86" y="9.9" width="7.81" height="96.82"/><rect class="cls-3" x="34.81" y="103.46" width="19.07" height="4.43"/><rect class="cls-3" x="172.23" y="103.46" width="19.07" height="4.43"/><rect class="cls-4" x="27.98" y="9.9" width="170.16" height="21.21"/><rect class="cls-4" x="27.98" y="44.04" width="170.16" height="21.21"/><polygon class="cls-5" points="172.24 9.9 178.12 20.51 183.99 31.11 196.92 31.11 191.05 20.51 185.16 9.9 172.24 9.9"/><polygon class="cls-5" points="173.66 44.04 179.47 54.65 185.28 65.25 198.04 65.25 192.23 54.65 186.42 44.04 173.66 44.04"/><polygon class="cls-5" points="133.95 9.9 140.56 20.51 147.15 31.11 161.66 31.11 155.06 20.51 148.46 9.9 133.95 9.9"/><polygon class="cls-5" points="137.36 44.04 143.42 54.65 149.47 65.25 162.78 65.25 156.72 54.65 150.66 44.04 137.36 44.04"/><polygon class="cls-5" points="100.23 9.9 106.47 20.51 112.69 31.11 126.39 31.11 120.17 20.51 113.94 9.9 100.23 9.9"/><polygon class="cls-5" points="103.5 44.04 109.22 54.65 114.94 65.25 127.52 65.25 121.8 54.65 116.08 44.04 103.5 44.04"/><polygon class="cls-5" points="66.84 9.9 72.63 20.51 78.4 31.11 91.13 31.11 85.35 20.51 79.56 9.9 66.84 9.9"/><polygon class="cls-5" points="66.98 44.04 73 54.65 79.02 65.25 92.25 65.25 86.23 54.65 80.2 44.04 66.98 44.04"/><polygon class="cls-5" points="31.91 44.04 37.94 54.65 43.96 65.25 57.19 65.25 51.17 54.65 45.14 44.04 31.91 44.04"/><polygon class="cls-5" points="32.58 9.9 38.13 20.51 43.66 31.11 55.86 31.11 50.32 20.51 44.78 9.9 32.58 9.9"/><path class="cls-6" d="M152,59,118.76,3.51a7.17,7.17,0,0,0-12.33,0L73.24,59a7.19,7.19,0,0,0,6.17,10.88h66.38A7.19,7.19,0,0,0,152,59Z"/><path class="cls-7" d="M145.22,66.36H80a4.47,4.47,0,0,1-3.83-6.76L108.77,5.09a4.46,4.46,0,0,1,7.66,0L149.05,59.6a4.47,4.47,0,0,1-3.83,6.76ZM112.6,5.59a1.76,1.76,0,0,0-1.54.87L78.43,61A1.81,1.81,0,0,0,80,63.7h65.25a1.8,1.8,0,0,0,1.57-.92,1.78,1.78,0,0,0,0-1.81L114.14,6.46A1.76,1.76,0,0,0,112.6,5.59Z"/><path class="cls-7" d="M112.29,16.88a3.47,3.47,0,0,0-3.06,3.68l1.51,25.66a1.86,1.86,0,0,0,3.72,0L116,20.41A3.37,3.37,0,0,0,112.29,16.88Z"/><path class="cls-7" d="M116,54.65a3.38,3.38,0,1,1-3.38-3.38A3.39,3.39,0,0,1,116,54.65Z"/><path class="cls-8" d="M28.64,111.06c0,.85-6.41,1.54-14.32,1.54S0,111.91,0,111.06s6.41-1.54,14.32-1.54S28.64,110.21,28.64,111.06Z"/><rect class="cls-9" x="22.84" y="58.99" width="16.81" height="4.62" transform="translate(-37.24 67.94) rotate(-68.53)"/><path class="cls-10" d="M27.71,58.11l8,3.14c11.37,4.39,13.09,7.53,13.82,5.55.94-2.53,2.64-8.26-10.56-13.7L31,50a1.14,1.14,0,0,0-1.49.64l-2.42,6A1.15,1.15,0,0,0,27.71,58.11Z"/><rect class="cls-9" x="24.3" y="52.71" width="6.62" height="1.4" transform="translate(-32.24 59.16) rotate(-68.16)"/><rect class="cls-11" x="-3.24" y="85.64" width="47.02" height="7.32" rx="3.38" transform="translate(-70.27 75.58) rotate(-68.59)"/><rect class="cls-12" x="25.61" y="63.21" width="4.86" height="12.53" rx="2.24" transform="translate(-46.88 70.23) rotate(-68.6)"/><rect class="cls-10" x="19.55" y="50.16" width="10.92" height="4.62" rx="2.13" transform="translate(-32.97 56.6) rotate(-68.59)"/><rect class="cls-12" x="-0.88" y="90.8" width="36.52" height="0.63" rx="0.29" transform="translate(-73.8 74.06) rotate(-68.61)"/><rect class="cls-12" x="1.01" y="91.54" width="36.52" height="0.63" rx="0.29" transform="translate(-73.29 76.3) rotate(-68.61)"/><rect class="cls-12" x="2.93" y="92.29" width="36.52" height="0.63" rx="0.29" transform="translate(-72.76 78.49) rotate(-68.57)"/><path class="cls-8" d="M230.69,123c0,.83-6.29,1.51-14,1.51s-14-.68-14-1.51,6.29-1.52,14-1.52S230.69,122.12,230.69,123Z"/><rect class="cls-13" x="199.83" y="88.53" width="5.57" height="9.76" transform="translate(-15.34 141.07) rotate(-37.09)"/><rect class="cls-11" x="185.53" y="54.39" width="6.81" height="41.86" rx="2.28" transform="translate(-7.2 129.16) rotate(-37.08)"/><rect class="cls-12" x="192.66" y="87.34" width="15.18" height="5.88" rx="2.58" transform="translate(-13.94 139.01) rotate(-37.09)"/><path class="cls-10" d="M192.08,105.74l25.27-19.1,9.82,13c2.1,2.78,1.14,18.44-3.36,21.83s-19.51.46-22.18-3.08Z"/><path class="cls-14" d="M195.46,103.18l-3.38,2.56,9.55,12.63c2.67,3.54,17.69,6.48,22.18,3.08,2.59-2,4-8,4.34-13.23C217.26,107.09,206.33,105,195.46,103.18Z"/><path class="cls-12" d="M179.44,59.33h0a.29.29,0,0,1,.4,0l19.39,25.89a.27.27,0,0,1-.09.38h0a.28.28,0,0,1-.39,0l-19.4-25.88A.3.3,0,0,1,179.44,59.33Z"/><path class="cls-12" d="M177.86,60.52h0a.28.28,0,0,1,.39,0l19.4,25.89a.28.28,0,0,1-.1.38h0a.29.29,0,0,1-.39,0l-19.4-25.89A.3.3,0,0,1,177.86,60.52Z"/><path class="cls-12" d="M176.26,61.73h0a.28.28,0,0,1,.39,0l19.4,25.89a.28.28,0,0,1-.1.38h0a.28.28,0,0,1-.39,0l-19.4-25.89A.28.28,0,0,1,176.26,61.73Z"/></g></g></svg>